<svg width="145" height="237" viewBox="0 0 145 237" fill="none" xmlns="http://www.w3.org/2000/svg">
<path d="M72.3988 19.3053C92.9722 45.4233 103.955 77.6312 103.556 110.68V118.57L110.344 122.7C119.114 128.009 125.655 136.244 128.775 145.903C126.036 143.887 123.17 142.042 120.196 140.381L102.095 130.218L98.8427 150.73C98.5609 152.542 98.1833 154.339 97.7114 156.113H46.9919C46.2377 153.792 45.6249 151.472 45.0593 149.059L40.9584 130.496L24.2719 139.778C21.4841 141.336 18.7926 143.057 16.2114 144.929C19.3917 135.381 25.7959 127.192 34.3592 121.725L40.817 117.595V110.263C40.9335 77.3476 52.048 45.3847 72.4459 19.3053H72.3988ZM72.4459 0C71.388 0.00256902 70.3668 0.381664 69.5706 1.06736L69.1463 1.43861C41.965 31.3676 26.8716 70.0687 26.723 110.216C15.1886 117.584 6.65057 128.708 2.60102 141.644C-1.44853 154.579 -0.752108 168.505 4.56859 180.987C10.1737 168.8 19.5435 158.665 31.3424 152.029C32.5257 157.075 34.1016 162.024 36.0561 166.833C36.304 167.757 36.8534 168.576 37.6199 169.163C38.3864 169.749 39.3275 170.072 40.2985 170.081H105.725C107.044 170.081 108.364 168.828 109.024 166.879C110.932 162.308 112.262 157.523 112.984 152.632C124.805 159.241 134.183 169.383 139.758 181.59C145.399 169.17 146.273 155.156 142.216 142.15C138.159 129.144 129.447 118.028 117.697 110.866C118.164 70.4816 103.15 31.4081 75.6512 1.43861C75.2417 0.987864 74.7406 0.626872 74.1803 0.379041C73.62 0.131209 73.013 0.00207169 72.3988 0L72.4459 0Z" fill="#4EA8DE"/>
<path d="M72.399 106.365C68.7785 106.364 65.239 105.309 62.2267 103.332C59.2145 101.354 56.8643 98.5429 55.4724 95.2524C54.0805 91.9619 53.7092 88.3393 54.4054 84.8414C55.1015 81.3434 56.8339 78.1266 59.3841 75.5965C61.9344 73.0664 65.1883 71.3362 68.7359 70.624C72.2834 69.9118 75.9657 70.2495 79.3186 71.5945C82.6715 72.9395 85.5449 75.2317 87.5766 78.182C89.6083 81.1323 90.7074 84.6087 90.7353 88.1731V88.1731C90.7917 90.483 90.3852 92.7811 89.5391 94.9363C88.6931 97.0915 87.4239 99.0614 85.8043 100.734C84.1846 102.406 82.2462 103.747 80.0997 104.682C77.9533 105.616 75.6409 106.125 73.2946 106.179C72.998 106.226 72.6956 106.226 72.399 106.179V106.365Z" fill="#4EA8DE"/>
<path d="M97.9002 181.637C96.7208 181.599 95.5457 181.795 94.4439 182.211C93.3421 182.627 92.3358 183.255 91.484 184.059C90.6322 184.863 89.9521 185.826 89.4836 186.893C89.0151 187.959 88.7676 189.107 88.7556 190.268V217.648C88.7556 220.036 89.7191 222.326 91.434 224.014C93.1489 225.703 95.4749 226.651 97.9002 226.651C100.325 226.651 102.651 225.703 104.366 224.014C106.081 222.326 107.045 220.036 107.045 217.648V190.64C107.082 189.482 106.886 188.329 106.466 187.247C106.047 186.166 105.412 185.177 104.601 184.339C103.789 183.501 102.816 182.831 101.739 182.367C100.661 181.903 99.5004 181.654 98.3244 181.637H97.9002Z" fill="#5E60CE"/>
<path d="M46.9921 181.637C45.7926 181.574 44.5927 181.75 43.4636 182.153C42.3345 182.557 41.2994 183.18 40.4198 183.985C39.5403 184.79 38.8342 185.762 38.3437 186.841C37.8532 187.92 37.5883 189.086 37.5647 190.268V217.648C37.5647 220.036 38.5281 222.326 40.2431 224.014C41.958 225.703 44.284 226.651 46.7093 226.651C49.1346 226.651 51.4605 225.703 53.1755 224.014C54.8904 222.326 55.8539 220.036 55.8539 217.648V190.64C55.8915 189.482 55.6948 188.329 55.2752 187.247C54.8556 186.166 54.2215 185.177 53.4099 184.339C52.5982 183.501 51.6252 182.831 50.5477 182.367C49.4701 181.903 48.3095 181.654 47.1335 181.637H46.9921Z" fill="#5E60CE"/>
<path d="M71.7391 181.637C70.5629 181.612 69.3933 181.816 68.2971 182.236C67.2009 182.657 66.1996 183.286 65.3504 184.087C64.5012 184.889 63.8207 185.847 63.3478 186.908C62.875 187.968 62.619 189.11 62.5945 190.268V227.997C62.5945 230.385 63.5579 232.675 65.2729 234.363C66.9878 236.051 69.3138 237 71.7391 237C74.1644 237 76.4903 236.051 78.2053 234.363C79.9202 232.675 80.8837 230.385 80.8837 227.997V190.871C80.9213 189.714 80.7246 188.561 80.305 187.479C79.8854 186.398 79.2513 185.409 78.4396 184.571C77.628 183.733 76.655 183.063 75.5774 182.599C74.4999 182.135 73.3393 181.886 72.1633 181.869L71.7391 181.637Z" fill="#5E60CE"/>
</svg>
